<svg xmlns="http://www.w3.org/2000/svg" viewBox="0 0 1000 1000"><path d="M990 500c0 270.2-219.8 490-490 490S10 770.2 10 500 229.8 10 500 10s490 219.8 490 490zm-29.6 0c0-253.8-206.5-460.3-460.4-460.3C246.2 39.6 39.6 246.2 39.6 500S246.1 960.4 500 960.4c253.8 0 460.4-206.6 460.4-460.4z"/><path d="M817.5 667.3c-17.4 17.4-45.5 17.4-62.9 0L511.1 423.7 267.5 667.3c-17.4 17.4-45.5 17.4-62.9 0s-17.4-45.5 0-62.9l275-275c8.7-8.7 20-13 31.4-13 11.4 0 22.7 4.3 31.4 13l275 275c17.5 17.4 17.5 45.5.1 62.9z"/></svg>